<?xml version="1.0" encoding="utf-8"?>
<!-- Generator: Adobe Illustrator 25.3.1, SVG Export Plug-In . SVG Version: 6.00 Build 0)  -->
<svg version="1.1" id="Layer_1"
	xmlns="http://www.w3.org/2000/svg"
	xmlns:xlink="http://www.w3.org/1999/xlink" x="0px" y="0px" viewBox="0 0 220 115" style="enable-background:new 0 0 220 115;" xml:space="preserve">z
	<style type="text/css">
	.st0{fill:#FFFFFF;}
	.st1{fill:#BCBEC0;}
	.st2{fill:#58595B;}
	.st3{font-family:'Arial-BoldMT';}
	.st4{font-size:8px;}
	</style>
	<g>
		<path class="st0" d="M212,115H8c-4.4,0-8-3.6-8-8V8c0-4.4,3.6-8,8-8h204c4.4,0,8,3.6,8,8v99C220,111.4,216.4,115,212,115z"/>
		<g>
			<path class="st1" d="M16.1,30.5h-8c-1.1,0-2-0.9-2-2v-8c0-1.1,0.9-2,2-2h8c1.1,0,2,0.9,2,2v8C18.1,29.6,17.2,30.5,16.1,30.5z"/>
			<path class="st1" d="M16.1,43.5h-8c-1.1,0-2-0.9-2-2v-8c0-1.1,0.9-2,2-2h8c1.1,0,2,0.9,2,2v8C18.1,42.6,17.2,43.5,16.1,43.5z"/>
			<path class="st1" d="M16.1,56.5h-8c-1.1,0-2-0.9-2-2v-8c0-1.1,0.9-2,2-2h8c1.1,0,2,0.9,2,2v8C18.1,55.6,17.2,56.5,16.1,56.5z"/>
			<path class="st1" d="M16.1,69.5h-8c-1.1,0-2-0.9-2-2v-8c0-1.1,0.9-2,2-2h8c1.1,0,2,0.9,2,2v8C18.1,68.6,17.2,69.5,16.1,69.5z"/>
			<path class="st1" d="M16.1,82.5h-8c-1.1,0-2-0.9-2-2v-8c0-1.1,0.9-2,2-2h8c1.1,0,2,0.9,2,2v8C18.1,81.6,17.2,82.5,16.1,82.5z"/>
			<path class="st1" d="M16.1,95.5h-8c-1.1,0-2-0.9-2-2v-8c0-1.1,0.9-2,2-2h8c1.1,0,2,0.9,2,2v8C18.1,94.6,17.2,95.5,16.1,95.5z"/>
			<path class="st1" d="M16.1,108.5h-8c-1.1,0-2-0.9-2-2v-8c0-1.1,0.9-2,2-2h8c1.1,0,2,0.9,2,2v8C18.1,107.6,17.2,108.5,16.1,108.5z" />
			<path class="st1" d="M29.1,30.5h-8c-1.1,0-2-0.9-2-2v-8c0-1.1,0.9-2,2-2h8c1.1,0,2,0.9,2,2v8C31.1,29.6,30.2,30.5,29.1,30.5z"/>
			<path class="st1" d="M29.1,43.5h-8c-1.1,0-2-0.9-2-2v-8c0-1.1,0.9-2,2-2h8c1.1,0,2,0.9,2,2v8C31.1,42.6,30.2,43.5,29.1,43.5z"/>
			<path class="st1" d="M29.1,56.5h-8c-1.1,0-2-0.9-2-2v-8c0-1.1,0.9-2,2-2h8c1.1,0,2,0.9,2,2v8C31.1,55.6,30.2,56.5,29.1,56.5z"/>
			<path class="st1" d="M29.1,69.5h-8c-1.1,0-2-0.9-2-2v-8c0-1.1,0.9-2,2-2h8c1.1,0,2,0.9,2,2v8C31.1,68.6,30.2,69.5,29.1,69.5z"/>
			<path class="st1" d="M29.1,82.5h-8c-1.1,0-2-0.9-2-2v-8c0-1.1,0.9-2,2-2h8c1.1,0,2,0.9,2,2v8C31.1,81.6,30.2,82.5,29.1,82.5z"/>
			<path class="st1" d="M29.1,95.5h-8c-1.1,0-2-0.9-2-2v-8c0-1.1,0.9-2,2-2h8c1.1,0,2,0.9,2,2v8C31.1,94.6,30.2,95.5,29.1,95.5z"/>
			<path class="st1" d="M29.1,108.5h-8c-1.1,0-2-0.9-2-2v-8c0-1.1,0.9-2,2-2h8c1.1,0,2,0.9,2,2v8C31.1,107.6,30.2,108.5,29.1,108.5z" />
			<path class="st1" d="M42.1,30.5h-8c-1.1,0-2-0.9-2-2v-8c0-1.1,0.9-2,2-2h8c1.1,0,2,0.9,2,2v8C44.1,29.6,43.2,30.5,42.1,30.5z"/>
			<path class="st1" d="M42.1,43.5h-8c-1.1,0-2-0.9-2-2v-8c0-1.1,0.9-2,2-2h8c1.1,0,2,0.9,2,2v8C44.1,42.6,43.2,43.5,42.1,43.5z"/>
			<path class="st1" d="M42.1,56.5h-8c-1.1,0-2-0.9-2-2v-8c0-1.1,0.9-2,2-2h8c1.1,0,2,0.9,2,2v8C44.1,55.6,43.2,56.5,42.1,56.5z"/>
			<path class="st1" d="M42.1,69.5h-8c-1.1,0-2-0.9-2-2v-8c0-1.1,0.9-2,2-2h8c1.1,0,2,0.9,2,2v8C44.1,68.6,43.2,69.5,42.1,69.5z"/>
			<path class="st1" d="M42.1,82.5h-8c-1.1,0-2-0.9-2-2v-8c0-1.1,0.9-2,2-2h8c1.1,0,2,0.9,2,2v8C44.1,81.6,43.2,82.5,42.1,82.5z"/>
			<path class="st1" d="M42.1,95.5h-8c-1.1,0-2-0.9-2-2v-8c0-1.1,0.9-2,2-2h8c1.1,0,2,0.9,2,2v8C44.1,94.6,43.2,95.5,42.1,95.5z"/>
			<path class="st1" d="M42.1,108.5h-8c-1.1,0-2-0.9-2-2v-8c0-1.1,0.9-2,2-2h8c1.1,0,2,0.9,2,2v8C44.1,107.6,43.2,108.5,42.1,108.5z" />
			<path class="st1" d="M55.1,30.5h-8c-1.1,0-2-0.9-2-2v-8c0-1.1,0.9-2,2-2h8c1.1,0,2,0.9,2,2v8C57.1,29.6,56.2,30.5,55.1,30.5z"/>
			<path class="st1" d="M55.1,43.5h-8c-1.1,0-2-0.9-2-2v-8c0-1.1,0.9-2,2-2h8c1.1,0,2,0.9,2,2v8C57.1,42.6,56.2,43.5,55.1,43.5z"/>
			<path class="st1" d="M55.1,56.5h-8c-1.1,0-2-0.9-2-2v-8c0-1.1,0.9-2,2-2h8c1.1,0,2,0.9,2,2v8C57.1,55.6,56.2,56.5,55.1,56.5z"/>
			<path class="st1" d="M55.1,69.5h-8c-1.1,0-2-0.9-2-2v-8c0-1.1,0.9-2,2-2h8c1.1,0,2,0.9,2,2v8C57.1,68.6,56.2,69.5,55.1,69.5z"/>
			<path class="st1" d="M55.1,82.5h-8c-1.1,0-2-0.9-2-2v-8c0-1.1,0.9-2,2-2h8c1.1,0,2,0.9,2,2v8C57.1,81.6,56.2,82.5,55.1,82.5z"/>
			<path class="st1" d="M55.1,95.5h-8c-1.1,0-2-0.9-2-2v-8c0-1.1,0.9-2,2-2h8c1.1,0,2,0.9,2,2v8C57.1,94.6,56.2,95.5,55.1,95.5z"/>
			<path class="st1" d="M55.1,108.5h-8c-1.1,0-2-0.9-2-2v-8c0-1.1,0.9-2,2-2h8c1.1,0,2,0.9,2,2v8C57.1,107.6,56.2,108.5,55.1,108.5z" />
			<path class="st1" d="M68.1,30.5h-8c-1.1,0-2-0.9-2-2v-8c0-1.1,0.9-2,2-2h8c1.1,0,2,0.9,2,2v8C70.1,29.6,69.2,30.5,68.1,30.5z"/>
			<path class="st1" d="M68.1,43.5h-8c-1.1,0-2-0.9-2-2v-8c0-1.1,0.9-2,2-2h8c1.1,0,2,0.9,2,2v8C70.1,42.6,69.2,43.5,68.1,43.5z"/>
			<path class="st1" d="M68.1,56.5h-8c-1.1,0-2-0.9-2-2v-8c0-1.1,0.9-2,2-2h8c1.1,0,2,0.9,2,2v8C70.1,55.6,69.2,56.5,68.1,56.5z"/>
			<path class="st1" d="M68.1,69.5h-8c-1.1,0-2-0.9-2-2v-8c0-1.1,0.9-2,2-2h8c1.1,0,2,0.9,2,2v8C70.1,68.6,69.2,69.5,68.1,69.5z"/>
			<path class="st1" d="M68.1,82.5h-8c-1.1,0-2-0.9-2-2v-8c0-1.1,0.9-2,2-2h8c1.1,0,2,0.9,2,2v8C70.1,81.6,69.2,82.5,68.1,82.5z"/>
			<path class="st1" d="M68.1,95.5h-8c-1.1,0-2-0.9-2-2v-8c0-1.1,0.9-2,2-2h8c1.1,0,2,0.9,2,2v8C70.1,94.6,69.2,95.5,68.1,95.5z"/>
			<path class="st1" d="M68.1,108.5h-8c-1.1,0-2-0.9-2-2v-8c0-1.1,0.9-2,2-2h8c1.1,0,2,0.9,2,2v8C70.1,107.6,69.2,108.5,68.1,108.5z" />
			<path class="st1" d="M81.1,30.5h-8c-1.1,0-2-0.9-2-2v-8c0-1.1,0.9-2,2-2h8c1.1,0,2,0.9,2,2v8C83.1,29.6,82.2,30.5,81.1,30.5z"/>
			<path class="st1" d="M81.1,43.5h-8c-1.1,0-2-0.9-2-2v-8c0-1.1,0.9-2,2-2h8c1.1,0,2,0.9,2,2v8C83.1,42.6,82.2,43.5,81.1,43.5z"/>
			<path class="st1" d="M81.1,56.5h-8c-1.1,0-2-0.9-2-2v-8c0-1.1,0.9-2,2-2h8c1.1,0,2,0.9,2,2v8C83.1,55.6,82.2,56.5,81.1,56.5z"/>
			<path class="st1" d="M81.1,69.5h-8c-1.1,0-2-0.9-2-2v-8c0-1.1,0.9-2,2-2h8c1.1,0,2,0.9,2,2v8C83.1,68.6,82.2,69.5,81.1,69.5z"/>
			<path class="st1" d="M81.1,82.5h-8c-1.1,0-2-0.9-2-2v-8c0-1.1,0.9-2,2-2h8c1.1,0,2,0.9,2,2v8C83.1,81.6,82.2,82.5,81.1,82.5z"/>
			<path class="st1" d="M81.1,95.5h-8c-1.1,0-2-0.9-2-2v-8c0-1.1,0.9-2,2-2h8c1.1,0,2,0.9,2,2v8C83.1,94.6,82.2,95.5,81.1,95.5z"/>
			<path class="st1" d="M81.1,108.5h-8c-1.1,0-2-0.9-2-2v-8c0-1.1,0.9-2,2-2h8c1.1,0,2,0.9,2,2v8C83.1,107.6,82.2,108.5,81.1,108.5z" />
			<path class="st1" d="M94.1,30.5h-8c-1.1,0-2-0.9-2-2v-8c0-1.1,0.9-2,2-2h8c1.1,0,2,0.9,2,2v8C96.1,29.6,95.2,30.5,94.1,30.5z"/>
			<path class="st1" d="M94.1,43.5h-8c-1.1,0-2-0.9-2-2v-8c0-1.1,0.9-2,2-2h8c1.1,0,2,0.9,2,2v8C96.1,42.6,95.2,43.5,94.1,43.5z"/>
			<path class="st1" d="M94.1,56.5h-8c-1.1,0-2-0.9-2-2v-8c0-1.1,0.9-2,2-2h8c1.1,0,2,0.9,2,2v8C96.1,55.6,95.2,56.5,94.1,56.5z"/>
			<path class="st1" d="M94.1,69.5h-8c-1.1,0-2-0.9-2-2v-8c0-1.1,0.9-2,2-2h8c1.1,0,2,0.9,2,2v8C96.1,68.6,95.2,69.5,94.1,69.5z"/>
			<path class="st1" d="M94.1,82.5h-8c-1.1,0-2-0.9-2-2v-8c0-1.1,0.9-2,2-2h8c1.1,0,2,0.9,2,2v8C96.1,81.6,95.2,82.5,94.1,82.5z"/>
			<path class="st1" d="M94.1,95.5h-8c-1.1,0-2-0.9-2-2v-8c0-1.1,0.9-2,2-2h8c1.1,0,2,0.9,2,2v8C96.1,94.6,95.2,95.5,94.1,95.5z"/>
			<path class="st1" d="M94.1,108.5h-8c-1.1,0-2-0.9-2-2v-8c0-1.1,0.9-2,2-2h8c1.1,0,2,0.9,2,2v8C96.1,107.6,95.2,108.5,94.1,108.5z" />
			<path class="st1" d="M107.1,30.5h-8c-1.1,0-2-0.9-2-2v-8c0-1.1,0.9-2,2-2h8c1.1,0,2,0.9,2,2v8C109.1,29.6,108.2,30.5,107.1,30.5z" />
			<path class="st1" d="M107.1,43.5h-8c-1.1,0-2-0.9-2-2v-8c0-1.1,0.9-2,2-2h8c1.1,0,2,0.9,2,2v8C109.1,42.6,108.2,43.5,107.1,43.5z" />
			<path class="st1" d="M107.1,56.5h-8c-1.1,0-2-0.9-2-2v-8c0-1.1,0.9-2,2-2h8c1.1,0,2,0.9,2,2v8C109.1,55.6,108.2,56.5,107.1,56.5z" />
			<path class="st1" d="M107.1,69.5h-8c-1.1,0-2-0.9-2-2v-8c0-1.1,0.9-2,2-2h8c1.1,0,2,0.9,2,2v8C109.1,68.6,108.2,69.5,107.1,69.5z" />
			<path class="st1" d="M107.1,82.5h-8c-1.1,0-2-0.9-2-2v-8c0-1.1,0.9-2,2-2h8c1.1,0,2,0.9,2,2v8C109.1,81.6,108.2,82.5,107.1,82.5z" />
			<path class="st1" d="M107.1,95.5h-8c-1.1,0-2-0.9-2-2v-8c0-1.1,0.9-2,2-2h8c1.1,0,2,0.9,2,2v8C109.1,94.6,108.2,95.5,107.1,95.5z" />
			<path class="st1" d="M107.1,108.5h-8c-1.1,0-2-0.9-2-2v-8c0-1.1,0.9-2,2-2h8c1.1,0,2,0.9,2,2v8
			C109.1,107.6,108.2,108.5,107.1,108.5z"/>
			<path class="st1" d="M120.1,30.5h-8c-1.1,0-2-0.9-2-2v-8c0-1.1,0.9-2,2-2h8c1.1,0,2,0.9,2,2v8C122.1,29.6,121.2,30.5,120.1,30.5z" />
			<path class="st1" d="M120.1,43.5h-8c-1.1,0-2-0.9-2-2v-8c0-1.1,0.9-2,2-2h8c1.1,0,2,0.9,2,2v8C122.1,42.6,121.2,43.5,120.1,43.5z" />
			<path class="st1" d="M120.1,56.5h-8c-1.1,0-2-0.9-2-2v-8c0-1.1,0.9-2,2-2h8c1.1,0,2,0.9,2,2v8C122.1,55.6,121.2,56.5,120.1,56.5z" />
			<path class="st1" d="M120.1,69.5h-8c-1.1,0-2-0.9-2-2v-8c0-1.1,0.9-2,2-2h8c1.1,0,2,0.9,2,2v8C122.1,68.6,121.2,69.5,120.1,69.5z" />
			<path class="st1" d="M120.1,82.5h-8c-1.1,0-2-0.9-2-2v-8c0-1.1,0.9-2,2-2h8c1.1,0,2,0.9,2,2v8C122.1,81.6,121.2,82.5,120.1,82.5z" />
			<path class="st1" d="M120.1,95.5h-8c-1.1,0-2-0.9-2-2v-8c0-1.1,0.9-2,2-2h8c1.1,0,2,0.9,2,2v8C122.1,94.6,121.2,95.5,120.1,95.5z" />
			<path class="st1" d="M120.1,108.5h-8c-1.1,0-2-0.9-2-2v-8c0-1.1,0.9-2,2-2h8c1.1,0,2,0.9,2,2v8
			C122.1,107.6,121.2,108.5,120.1,108.5z"/>
			<path class="st1" d="M133.1,30.5h-8c-1.1,0-2-0.9-2-2v-8c0-1.1,0.9-2,2-2h8c1.1,0,2,0.9,2,2v8C135.1,29.6,134.2,30.5,133.1,30.5z" />
			<path class="st1" d="M133.1,43.5h-8c-1.1,0-2-0.9-2-2v-8c0-1.1,0.9-2,2-2h8c1.1,0,2,0.9,2,2v8C135.1,42.6,134.2,43.5,133.1,43.5z" />
			<path class="st1" d="M133.1,56.5h-8c-1.1,0-2-0.9-2-2v-8c0-1.1,0.9-2,2-2h8c1.1,0,2,0.9,2,2v8C135.1,55.6,134.2,56.5,133.1,56.5z" />
			<path class="st1" d="M133.1,69.5h-8c-1.1,0-2-0.9-2-2v-8c0-1.1,0.9-2,2-2h8c1.1,0,2,0.9,2,2v8C135.1,68.6,134.2,69.5,133.1,69.5z" />
			<path class="st1" d="M133.1,82.5h-8c-1.1,0-2-0.9-2-2v-8c0-1.1,0.9-2,2-2h8c1.1,0,2,0.9,2,2v8C135.1,81.6,134.2,82.5,133.1,82.5z" />
			<path class="st1" d="M133.1,95.5h-8c-1.1,0-2-0.9-2-2v-8c0-1.1,0.9-2,2-2h8c1.1,0,2,0.9,2,2v8C135.1,94.6,134.2,95.5,133.1,95.5z" />
			<path class="st1" d="M133.1,108.5h-8c-1.1,0-2-0.9-2-2v-8c0-1.1,0.9-2,2-2h8c1.1,0,2,0.9,2,2v8
			C135.1,107.6,134.2,108.5,133.1,108.5z"/>
			<path class="st1" d="M146.1,30.5h-8c-1.1,0-2-0.9-2-2v-8c0-1.1,0.9-2,2-2h8c1.1,0,2,0.9,2,2v8C148.1,29.6,147.2,30.5,146.1,30.5z" />
			<path class="st1" d="M146.1,43.5h-8c-1.1,0-2-0.9-2-2v-8c0-1.1,0.9-2,2-2h8c1.1,0,2,0.9,2,2v8C148.1,42.6,147.2,43.5,146.1,43.5z" />
			<path class="st1" d="M146.1,56.5h-8c-1.1,0-2-0.9-2-2v-8c0-1.1,0.9-2,2-2h8c1.1,0,2,0.9,2,2v8C148.1,55.6,147.2,56.5,146.1,56.5z" />
			<path class="st1" d="M146.1,69.5h-8c-1.1,0-2-0.9-2-2v-8c0-1.1,0.9-2,2-2h8c1.1,0,2,0.9,2,2v8C148.1,68.6,147.2,69.5,146.1,69.5z" />
			<path class="st1" d="M146.1,82.5h-8c-1.1,0-2-0.9-2-2v-8c0-1.1,0.9-2,2-2h8c1.1,0,2,0.9,2,2v8C148.1,81.6,147.2,82.5,146.1,82.5z" />
			<path class="st1" d="M146.1,95.5h-8c-1.1,0-2-0.9-2-2v-8c0-1.1,0.9-2,2-2h8c1.1,0,2,0.9,2,2v8C148.1,94.6,147.2,95.5,146.1,95.5z" />
			<path class="st1" d="M146.1,108.5h-8c-1.1,0-2-0.9-2-2v-8c0-1.1,0.9-2,2-2h8c1.1,0,2,0.9,2,2v8
			C148.1,107.6,147.2,108.5,146.1,108.5z"/>
			<path class="st1" d="M159.1,30.5h-8c-1.1,0-2-0.9-2-2v-8c0-1.1,0.9-2,2-2h8c1.1,0,2,0.9,2,2v8C161.1,29.6,160.2,30.5,159.1,30.5z" />
			<path class="st1" d="M159.1,43.5h-8c-1.1,0-2-0.9-2-2v-8c0-1.1,0.9-2,2-2h8c1.1,0,2,0.9,2,2v8C161.1,42.6,160.2,43.5,159.1,43.5z" />
			<path class="st1" d="M159.1,56.5h-8c-1.1,0-2-0.9-2-2v-8c0-1.1,0.9-2,2-2h8c1.1,0,2,0.9,2,2v8C161.1,55.6,160.2,56.5,159.1,56.5z" />
			<path class="st1" d="M159.1,69.5h-8c-1.1,0-2-0.9-2-2v-8c0-1.1,0.9-2,2-2h8c1.1,0,2,0.9,2,2v8C161.1,68.6,160.2,69.5,159.1,69.5z" />
			<path class="st1" d="M159.1,82.5h-8c-1.1,0-2-0.9-2-2v-8c0-1.1,0.9-2,2-2h8c1.1,0,2,0.9,2,2v8C161.1,81.6,160.2,82.5,159.1,82.5z" />
			<path class="st1" d="M159.1,95.5h-8c-1.1,0-2-0.9-2-2v-8c0-1.1,0.9-2,2-2h8c1.1,0,2,0.9,2,2v8C161.1,94.6,160.2,95.5,159.1,95.5z" />
			<path class="st1" d="M159.1,108.5h-8c-1.1,0-2-0.9-2-2v-8c0-1.1,0.9-2,2-2h8c1.1,0,2,0.9,2,2v8
			C161.1,107.6,160.2,108.5,159.1,108.5z"/>
			<path class="st1" d="M172.1,30.5h-8c-1.1,0-2-0.9-2-2v-8c0-1.1,0.9-2,2-2h8c1.1,0,2,0.9,2,2v8C174.1,29.6,173.2,30.5,172.1,30.5z" />
			<path class="st1" d="M172.1,43.5h-8c-1.1,0-2-0.9-2-2v-8c0-1.1,0.9-2,2-2h8c1.1,0,2,0.9,2,2v8C174.1,42.6,173.2,43.5,172.1,43.5z" />
			<path class="st1" d="M172.1,56.5h-8c-1.1,0-2-0.9-2-2v-8c0-1.1,0.9-2,2-2h8c1.1,0,2,0.9,2,2v8C174.1,55.6,173.2,56.5,172.1,56.5z" />
			<path class="st1" d="M172.1,69.5h-8c-1.1,0-2-0.9-2-2v-8c0-1.1,0.9-2,2-2h8c1.1,0,2,0.9,2,2v8C174.1,68.6,173.2,69.5,172.1,69.5z" />
			<path class="st1" d="M172.1,82.5h-8c-1.1,0-2-0.9-2-2v-8c0-1.1,0.9-2,2-2h8c1.1,0,2,0.9,2,2v8C174.1,81.6,173.2,82.5,172.1,82.5z" />
			<path class="st1" d="M172.1,95.5h-8c-1.1,0-2-0.9-2-2v-8c0-1.1,0.9-2,2-2h8c1.1,0,2,0.9,2,2v8C174.1,94.6,173.2,95.5,172.1,95.5z" />
			<path class="st1" d="M172.1,108.5h-8c-1.1,0-2-0.9-2-2v-8c0-1.1,0.9-2,2-2h8c1.1,0,2,0.9,2,2v8
			C174.1,107.6,173.2,108.5,172.1,108.5z"/>
			<path class="st1" d="M185.1,30.5h-8c-1.1,0-2-0.9-2-2v-8c0-1.1,0.9-2,2-2h8c1.1,0,2,0.9,2,2v8C187.1,29.6,186.2,30.5,185.1,30.5z" />
			<path class="st1" d="M185.1,43.5h-8c-1.1,0-2-0.9-2-2v-8c0-1.1,0.9-2,2-2h8c1.1,0,2,0.9,2,2v8C187.1,42.6,186.2,43.5,185.1,43.5z" />
			<path class="st1" d="M185.1,56.5h-8c-1.1,0-2-0.9-2-2v-8c0-1.1,0.9-2,2-2h8c1.1,0,2,0.9,2,2v8C187.1,55.6,186.2,56.5,185.1,56.5z" />
			<path class="st1" d="M185.1,69.5h-8c-1.1,0-2-0.9-2-2v-8c0-1.1,0.9-2,2-2h8c1.1,0,2,0.9,2,2v8C187.1,68.6,186.2,69.5,185.1,69.5z" />
			<path class="st1" d="M185.1,82.5h-8c-1.1,0-2-0.9-2-2v-8c0-1.1,0.9-2,2-2h8c1.1,0,2,0.9,2,2v8C187.1,81.6,186.2,82.5,185.1,82.5z" />
			<path class="st1" d="M185.1,95.5h-8c-1.1,0-2-0.9-2-2v-8c0-1.1,0.9-2,2-2h8c1.1,0,2,0.9,2,2v8C187.1,94.6,186.2,95.5,185.1,95.5z" />
			<path class="st1" d="M185.1,108.5h-8c-1.1,0-2-0.9-2-2v-8c0-1.1,0.9-2,2-2h8c1.1,0,2,0.9,2,2v8
			C187.1,107.6,186.2,108.5,185.1,108.5z"/>
			<path class="st1" d="M198.1,30.5h-8c-1.1,0-2-0.9-2-2v-8c0-1.1,0.9-2,2-2h8c1.1,0,2,0.9,2,2v8C200.1,29.6,199.2,30.5,198.1,30.5z" />
			<path class="st1" d="M198.1,43.5h-8c-1.1,0-2-0.9-2-2v-8c0-1.1,0.9-2,2-2h8c1.1,0,2,0.9,2,2v8C200.1,42.6,199.2,43.5,198.1,43.5z" />
			<path class="st1" d="M198.1,56.5h-8c-1.1,0-2-0.9-2-2v-8c0-1.1,0.9-2,2-2h8c1.1,0,2,0.9,2,2v8C200.1,55.6,199.2,56.5,198.1,56.5z" />
			<path class="st1" d="M198.1,69.5h-8c-1.1,0-2-0.9-2-2v-8c0-1.1,0.9-2,2-2h8c1.1,0,2,0.9,2,2v8C200.1,68.6,199.2,69.5,198.1,69.5z" />
			<path class="st1" d="M198.1,82.5h-8c-1.1,0-2-0.9-2-2v-8c0-1.1,0.9-2,2-2h8c1.1,0,2,0.9,2,2v8C200.1,81.6,199.2,82.5,198.1,82.5z" />
			<path class="st1" d="M198.1,95.5h-8c-1.1,0-2-0.9-2-2v-8c0-1.1,0.9-2,2-2h8c1.1,0,2,0.9,2,2v8C200.1,94.6,199.2,95.5,198.1,95.5z" />
			<path class="st1" d="M198.1,108.5h-8c-1.1,0-2-0.9-2-2v-8c0-1.1,0.9-2,2-2h8c1.1,0,2,0.9,2,2v8
			C200.1,107.6,199.2,108.5,198.1,108.5z"/>
			<path class="st1" d="M211.1,30.5h-8c-1.1,0-2-0.9-2-2v-8c0-1.1,0.9-2,2-2h8c1.1,0,2,0.9,2,2v8C213.1,29.6,212.2,30.5,211.1,30.5z" />
			<path class="st1" d="M211.1,43.5h-8c-1.1,0-2-0.9-2-2v-8c0-1.1,0.9-2,2-2h8c1.1,0,2,0.9,2,2v8C213.1,42.6,212.2,43.5,211.1,43.5z" />
			<path class="st1" d="M211.1,56.5h-8c-1.1,0-2-0.9-2-2v-8c0-1.1,0.9-2,2-2h8c1.1,0,2,0.9,2,2v8C213.1,55.6,212.2,56.5,211.1,56.5z" />
			<path class="st1" d="M211.1,69.5h-8c-1.1,0-2-0.9-2-2v-8c0-1.1,0.9-2,2-2h8c1.1,0,2,0.9,2,2v8C213.1,68.6,212.2,69.5,211.1,69.5z" />
			<path class="st1" d="M211.1,82.5h-8c-1.1,0-2-0.9-2-2v-8c0-1.1,0.9-2,2-2h8c1.1,0,2,0.9,2,2v8C213.1,81.6,212.2,82.5,211.1,82.5z" />
			<path class="st1" d="M211.1,95.5h-8c-1.1,0-2-0.9-2-2v-8c0-1.1,0.9-2,2-2h8c1.1,0,2,0.9,2,2v8C213.1,94.6,212.2,95.5,211.1,95.5z" />
			<path class="st1" d="M211.1,108.5h-8c-1.1,0-2-0.9-2-2v-8c0-1.1,0.9-2,2-2h8c1.1,0,2,0.9,2,2v8
			C213.1,107.6,212.2,108.5,211.1,108.5z"/>
		</g>
		<text transform="matrix(1 0 0 1 6.1306 12.5319)" class="st2 st3 st4">GHSHIN</text>
		<text transform="matrix(1 0 0 1 170.1461 12.5321)" class="st2 st3 st4">TODAY : 15</text>
	</g>
</svg>
