<?xml version="1.0" encoding="utf-8"?>
<!-- Generator: Adobe Illustrator 25.3.1, SVG Export Plug-In . SVG Version: 6.00 Build 0)  -->
<svg version="1.1" id="Layer_1" xmlns="http://www.w3.org/2000/svg" xmlns:xlink="http://www.w3.org/1999/xlink" x="0px" y="0px"
	 viewBox="0 0 220 103" style="enable-background:new 0 0 220 103;" xml:space="preserve">
<style type="text/css">
	.st0{fill:#FFFFFF;}
	.st1{fill:#EBEDF0;}
</style>
<path class="st0" d="M212,103H8c-4.4,0-8-3.2-8-7.2V7.2C0,3.2,3.6,0,8,0h204c4.4,0,8,3.2,8,7.2v88.7C220,99.8,216.4,103,212,103z"/>
<g>
	<path class="st1" d="M16.1,18.5h-8c-1.1,0-2-0.9-2-2v-8c0-1.1,0.9-2,2-2h8c1.1,0,2,0.9,2,2v8C18.1,17.6,17.2,18.5,16.1,18.5z"/>
	<path class="st1" d="M16.1,31.5h-8c-1.1,0-2-0.9-2-2v-8c0-1.1,0.9-2,2-2h8c1.1,0,2,0.9,2,2v8C18.1,30.6,17.2,31.5,16.1,31.5z"/>
	<path class="st1" d="M16.1,44.5h-8c-1.1,0-2-0.9-2-2v-8c0-1.1,0.9-2,2-2h8c1.1,0,2,0.9,2,2v8C18.1,43.6,17.2,44.5,16.1,44.5z"/>
	<path class="st1" d="M16.1,57.5h-8c-1.1,0-2-0.9-2-2v-8c0-1.1,0.9-2,2-2h8c1.1,0,2,0.9,2,2v8C18.1,56.6,17.2,57.5,16.1,57.5z"/>
	<path class="st1" d="M16.1,70.5h-8c-1.1,0-2-0.9-2-2v-8c0-1.1,0.9-2,2-2h8c1.1,0,2,0.9,2,2v8C18.1,69.6,17.2,70.5,16.1,70.5z"/>
	<path class="st1" d="M16.1,83.5h-8c-1.1,0-2-0.9-2-2v-8c0-1.1,0.9-2,2-2h8c1.1,0,2,0.9,2,2v8C18.1,82.6,17.2,83.5,16.1,83.5z"/>
	<path class="st1" d="M16.1,96.5h-8c-1.1,0-2-0.9-2-2v-8c0-1.1,0.9-2,2-2h8c1.1,0,2,0.9,2,2v8C18.1,95.6,17.2,96.5,16.1,96.5z"/>
	<path class="st1" d="M29.1,18.5h-8c-1.1,0-2-0.9-2-2v-8c0-1.1,0.9-2,2-2h8c1.1,0,2,0.9,2,2v8C31.1,17.6,30.2,18.5,29.1,18.5z"/>
	<path class="st1" d="M29.1,31.5h-8c-1.1,0-2-0.9-2-2v-8c0-1.1,0.9-2,2-2h8c1.1,0,2,0.9,2,2v8C31.1,30.6,30.2,31.5,29.1,31.5z"/>
	<path class="st1" d="M29.1,44.5h-8c-1.1,0-2-0.9-2-2v-8c0-1.1,0.9-2,2-2h8c1.1,0,2,0.9,2,2v8C31.1,43.6,30.2,44.5,29.1,44.5z"/>
	<path class="st1" d="M29.1,57.5h-8c-1.1,0-2-0.9-2-2v-8c0-1.1,0.9-2,2-2h8c1.1,0,2,0.9,2,2v8C31.1,56.6,30.2,57.5,29.1,57.5z"/>
	<path class="st1" d="M29.1,70.5h-8c-1.1,0-2-0.9-2-2v-8c0-1.1,0.9-2,2-2h8c1.1,0,2,0.9,2,2v8C31.1,69.6,30.2,70.5,29.1,70.5z"/>
	<path class="st1" d="M29.1,83.5h-8c-1.1,0-2-0.9-2-2v-8c0-1.1,0.9-2,2-2h8c1.1,0,2,0.9,2,2v8C31.1,82.6,30.2,83.5,29.1,83.5z"/>
	<path class="st1" d="M29.1,96.5h-8c-1.1,0-2-0.9-2-2v-8c0-1.1,0.9-2,2-2h8c1.1,0,2,0.9,2,2v8C31.1,95.6,30.2,96.5,29.1,96.5z"/>
	<path class="st1" d="M42.1,18.5h-8c-1.1,0-2-0.9-2-2v-8c0-1.1,0.9-2,2-2h8c1.1,0,2,0.9,2,2v8C44.1,17.6,43.2,18.5,42.1,18.5z"/>
	<path class="st1" d="M42.1,31.5h-8c-1.1,0-2-0.9-2-2v-8c0-1.1,0.9-2,2-2h8c1.1,0,2,0.9,2,2v8C44.1,30.6,43.2,31.5,42.1,31.5z"/>
	<path class="st1" d="M42.1,44.5h-8c-1.1,0-2-0.9-2-2v-8c0-1.1,0.9-2,2-2h8c1.1,0,2,0.9,2,2v8C44.1,43.6,43.2,44.5,42.1,44.5z"/>
	<path class="st1" d="M42.1,57.5h-8c-1.1,0-2-0.9-2-2v-8c0-1.1,0.9-2,2-2h8c1.1,0,2,0.9,2,2v8C44.1,56.6,43.2,57.5,42.1,57.5z"/>
	<path class="st1" d="M42.1,70.5h-8c-1.1,0-2-0.9-2-2v-8c0-1.1,0.9-2,2-2h8c1.1,0,2,0.9,2,2v8C44.1,69.6,43.2,70.5,42.1,70.5z"/>
	<path class="st1" d="M42.1,83.5h-8c-1.1,0-2-0.9-2-2v-8c0-1.1,0.9-2,2-2h8c1.1,0,2,0.9,2,2v8C44.1,82.6,43.2,83.5,42.1,83.5z"/>
	<path class="st1" d="M42.1,96.5h-8c-1.1,0-2-0.9-2-2v-8c0-1.1,0.9-2,2-2h8c1.1,0,2,0.9,2,2v8C44.1,95.6,43.2,96.5,42.1,96.5z"/>
	<path class="st1" d="M55.1,18.5h-8c-1.1,0-2-0.9-2-2v-8c0-1.1,0.9-2,2-2h8c1.1,0,2,0.9,2,2v8C57.1,17.6,56.2,18.5,55.1,18.5z"/>
	<path class="st1" d="M55.1,31.5h-8c-1.1,0-2-0.9-2-2v-8c0-1.1,0.9-2,2-2h8c1.1,0,2,0.9,2,2v8C57.1,30.6,56.2,31.5,55.1,31.5z"/>
	<path class="st1" d="M55.1,44.5h-8c-1.1,0-2-0.9-2-2v-8c0-1.1,0.9-2,2-2h8c1.1,0,2,0.9,2,2v8C57.1,43.6,56.2,44.5,55.1,44.5z"/>
	<path class="st1" d="M55.1,57.5h-8c-1.1,0-2-0.9-2-2v-8c0-1.1,0.9-2,2-2h8c1.1,0,2,0.9,2,2v8C57.1,56.6,56.2,57.5,55.1,57.5z"/>
	<path class="st1" d="M55.1,70.5h-8c-1.1,0-2-0.9-2-2v-8c0-1.1,0.9-2,2-2h8c1.1,0,2,0.9,2,2v8C57.1,69.6,56.2,70.5,55.1,70.5z"/>
	<path class="st1" d="M55.1,83.5h-8c-1.1,0-2-0.9-2-2v-8c0-1.1,0.9-2,2-2h8c1.1,0,2,0.9,2,2v8C57.1,82.6,56.2,83.5,55.1,83.5z"/>
	<path class="st1" d="M55.1,96.5h-8c-1.1,0-2-0.9-2-2v-8c0-1.1,0.9-2,2-2h8c1.1,0,2,0.9,2,2v8C57.1,95.6,56.2,96.5,55.1,96.5z"/>
	<path class="st1" d="M68.1,18.5h-8c-1.1,0-2-0.9-2-2v-8c0-1.1,0.9-2,2-2h8c1.1,0,2,0.9,2,2v8C70.1,17.6,69.2,18.5,68.1,18.5z"/>
	<path class="st1" d="M68.1,31.5h-8c-1.1,0-2-0.9-2-2v-8c0-1.1,0.9-2,2-2h8c1.1,0,2,0.9,2,2v8C70.1,30.6,69.2,31.5,68.1,31.5z"/>
	<path class="st1" d="M68.1,44.5h-8c-1.1,0-2-0.9-2-2v-8c0-1.1,0.9-2,2-2h8c1.1,0,2,0.9,2,2v8C70.1,43.6,69.2,44.5,68.1,44.5z"/>
	<path class="st1" d="M68.1,57.5h-8c-1.1,0-2-0.9-2-2v-8c0-1.1,0.9-2,2-2h8c1.1,0,2,0.9,2,2v8C70.1,56.6,69.2,57.5,68.1,57.5z"/>
	<path class="st1" d="M68.1,70.5h-8c-1.1,0-2-0.9-2-2v-8c0-1.1,0.9-2,2-2h8c1.1,0,2,0.9,2,2v8C70.1,69.6,69.2,70.5,68.1,70.5z"/>
	<path class="st1" d="M68.1,83.5h-8c-1.1,0-2-0.9-2-2v-8c0-1.1,0.9-2,2-2h8c1.1,0,2,0.9,2,2v8C70.1,82.6,69.2,83.5,68.1,83.5z"/>
	<path class="st1" d="M68.1,96.5h-8c-1.1,0-2-0.9-2-2v-8c0-1.1,0.9-2,2-2h8c1.1,0,2,0.9,2,2v8C70.1,95.6,69.2,96.5,68.1,96.5z"/>
	<path class="st1" d="M81.1,18.5h-8c-1.1,0-2-0.9-2-2v-8c0-1.1,0.9-2,2-2h8c1.1,0,2,0.9,2,2v8C83.1,17.6,82.2,18.5,81.1,18.5z"/>
	<path class="st1" d="M81.1,31.5h-8c-1.1,0-2-0.9-2-2v-8c0-1.1,0.9-2,2-2h8c1.1,0,2,0.9,2,2v8C83.1,30.6,82.2,31.5,81.1,31.5z"/>
	<path class="st1" d="M81.1,44.5h-8c-1.1,0-2-0.9-2-2v-8c0-1.1,0.9-2,2-2h8c1.1,0,2,0.9,2,2v8C83.1,43.6,82.2,44.5,81.1,44.5z"/>
	<path class="st1" d="M81.1,57.5h-8c-1.1,0-2-0.9-2-2v-8c0-1.1,0.9-2,2-2h8c1.1,0,2,0.9,2,2v8C83.1,56.6,82.2,57.5,81.1,57.5z"/>
	<path class="st1" d="M81.1,70.5h-8c-1.1,0-2-0.9-2-2v-8c0-1.1,0.9-2,2-2h8c1.1,0,2,0.9,2,2v8C83.1,69.6,82.2,70.5,81.1,70.5z"/>
	<path class="st1" d="M81.1,83.5h-8c-1.1,0-2-0.9-2-2v-8c0-1.1,0.9-2,2-2h8c1.1,0,2,0.9,2,2v8C83.1,82.6,82.2,83.5,81.1,83.5z"/>
	<path class="st1" d="M81.1,96.5h-8c-1.1,0-2-0.9-2-2v-8c0-1.1,0.9-2,2-2h8c1.1,0,2,0.9,2,2v8C83.1,95.6,82.2,96.5,81.1,96.5z"/>
	<path class="st1" d="M94.1,18.5h-8c-1.1,0-2-0.9-2-2v-8c0-1.1,0.9-2,2-2h8c1.1,0,2,0.9,2,2v8C96.1,17.6,95.2,18.5,94.1,18.5z"/>
	<path class="st1" d="M94.1,31.5h-8c-1.1,0-2-0.9-2-2v-8c0-1.1,0.9-2,2-2h8c1.1,0,2,0.9,2,2v8C96.1,30.6,95.2,31.5,94.1,31.5z"/>
	<path class="st1" d="M94.1,44.5h-8c-1.1,0-2-0.9-2-2v-8c0-1.1,0.9-2,2-2h8c1.1,0,2,0.9,2,2v8C96.1,43.6,95.2,44.5,94.1,44.5z"/>
	<path class="st1" d="M94.1,57.5h-8c-1.1,0-2-0.9-2-2v-8c0-1.1,0.9-2,2-2h8c1.1,0,2,0.9,2,2v8C96.1,56.6,95.2,57.5,94.1,57.5z"/>
	<path class="st1" d="M94.1,70.5h-8c-1.1,0-2-0.9-2-2v-8c0-1.1,0.9-2,2-2h8c1.1,0,2,0.9,2,2v8C96.1,69.6,95.2,70.5,94.1,70.5z"/>
	<path class="st1" d="M94.1,83.5h-8c-1.1,0-2-0.9-2-2v-8c0-1.1,0.9-2,2-2h8c1.1,0,2,0.9,2,2v8C96.1,82.6,95.2,83.5,94.1,83.5z"/>
	<path class="st1" d="M94.1,96.5h-8c-1.1,0-2-0.9-2-2v-8c0-1.1,0.9-2,2-2h8c1.1,0,2,0.9,2,2v8C96.1,95.6,95.2,96.5,94.1,96.5z"/>
	<path class="st1" d="M107.1,18.5h-8c-1.1,0-2-0.9-2-2v-8c0-1.1,0.9-2,2-2h8c1.1,0,2,0.9,2,2v8C109.1,17.6,108.2,18.5,107.1,18.5z"
		/>
	<path class="st1" d="M107.1,31.5h-8c-1.1,0-2-0.9-2-2v-8c0-1.1,0.9-2,2-2h8c1.1,0,2,0.9,2,2v8C109.1,30.6,108.2,31.5,107.1,31.5z"
		/>
	<path class="st1" d="M107.1,44.5h-8c-1.1,0-2-0.9-2-2v-8c0-1.1,0.9-2,2-2h8c1.1,0,2,0.9,2,2v8C109.1,43.6,108.2,44.5,107.1,44.5z"
		/>
	<path class="st1" d="M107.1,57.5h-8c-1.1,0-2-0.9-2-2v-8c0-1.1,0.9-2,2-2h8c1.1,0,2,0.9,2,2v8C109.1,56.6,108.2,57.5,107.1,57.5z"
		/>
	<path class="st1" d="M107.1,70.5h-8c-1.1,0-2-0.9-2-2v-8c0-1.1,0.9-2,2-2h8c1.1,0,2,0.9,2,2v8C109.1,69.6,108.2,70.5,107.1,70.5z"
		/>
	<path class="st1" d="M107.1,83.5h-8c-1.1,0-2-0.9-2-2v-8c0-1.1,0.9-2,2-2h8c1.1,0,2,0.9,2,2v8C109.1,82.6,108.2,83.5,107.1,83.5z"
		/>
	<path class="st1" d="M107.1,96.5h-8c-1.1,0-2-0.9-2-2v-8c0-1.1,0.9-2,2-2h8c1.1,0,2,0.9,2,2v8C109.1,95.6,108.2,96.5,107.1,96.5z"
		/>
	<path class="st1" d="M120.1,18.5h-8c-1.1,0-2-0.9-2-2v-8c0-1.1,0.9-2,2-2h8c1.1,0,2,0.9,2,2v8C122.1,17.6,121.2,18.5,120.1,18.5z"
		/>
	<path class="st1" d="M120.1,31.5h-8c-1.1,0-2-0.9-2-2v-8c0-1.1,0.9-2,2-2h8c1.1,0,2,0.9,2,2v8C122.1,30.6,121.2,31.5,120.1,31.5z"
		/>
	<path class="st1" d="M120.1,44.5h-8c-1.1,0-2-0.9-2-2v-8c0-1.1,0.9-2,2-2h8c1.1,0,2,0.9,2,2v8C122.1,43.6,121.2,44.5,120.1,44.5z"
		/>
	<path class="st1" d="M120.1,57.5h-8c-1.1,0-2-0.9-2-2v-8c0-1.1,0.9-2,2-2h8c1.1,0,2,0.9,2,2v8C122.1,56.6,121.2,57.5,120.1,57.5z"
		/>
	<path class="st1" d="M120.1,70.5h-8c-1.1,0-2-0.9-2-2v-8c0-1.1,0.9-2,2-2h8c1.1,0,2,0.9,2,2v8C122.1,69.6,121.2,70.5,120.1,70.5z"
		/>
	<path class="st1" d="M120.1,83.5h-8c-1.1,0-2-0.9-2-2v-8c0-1.1,0.9-2,2-2h8c1.1,0,2,0.9,2,2v8C122.1,82.6,121.2,83.5,120.1,83.5z"
		/>
	<path class="st1" d="M120.1,96.5h-8c-1.1,0-2-0.9-2-2v-8c0-1.1,0.9-2,2-2h8c1.1,0,2,0.9,2,2v8C122.1,95.6,121.2,96.5,120.1,96.5z"
		/>
	<path class="st1" d="M133.1,18.5h-8c-1.1,0-2-0.9-2-2v-8c0-1.1,0.9-2,2-2h8c1.1,0,2,0.9,2,2v8C135.1,17.6,134.2,18.5,133.1,18.5z"
		/>
	<path class="st1" d="M133.1,31.5h-8c-1.1,0-2-0.9-2-2v-8c0-1.1,0.9-2,2-2h8c1.1,0,2,0.9,2,2v8C135.1,30.6,134.2,31.5,133.1,31.5z"
		/>
	<path class="st1" d="M133.1,44.5h-8c-1.1,0-2-0.9-2-2v-8c0-1.1,0.9-2,2-2h8c1.1,0,2,0.9,2,2v8C135.1,43.6,134.2,44.5,133.1,44.5z"
		/>
	<path class="st1" d="M133.1,57.5h-8c-1.1,0-2-0.9-2-2v-8c0-1.1,0.9-2,2-2h8c1.1,0,2,0.9,2,2v8C135.1,56.6,134.2,57.5,133.1,57.5z"
		/>
	<path class="st1" d="M133.1,70.5h-8c-1.1,0-2-0.9-2-2v-8c0-1.1,0.9-2,2-2h8c1.1,0,2,0.9,2,2v8C135.1,69.6,134.2,70.5,133.1,70.5z"
		/>
	<path class="st1" d="M133.1,83.5h-8c-1.1,0-2-0.9-2-2v-8c0-1.1,0.9-2,2-2h8c1.1,0,2,0.9,2,2v8C135.1,82.6,134.2,83.5,133.1,83.5z"
		/>
	<path class="st1" d="M133.1,96.5h-8c-1.1,0-2-0.9-2-2v-8c0-1.1,0.9-2,2-2h8c1.1,0,2,0.9,2,2v8C135.1,95.6,134.2,96.5,133.1,96.5z"
		/>
	<path class="st1" d="M146.1,18.5h-8c-1.1,0-2-0.9-2-2v-8c0-1.1,0.9-2,2-2h8c1.1,0,2,0.9,2,2v8C148.1,17.6,147.2,18.5,146.1,18.5z"
		/>
	<path class="st1" d="M146.1,31.5h-8c-1.1,0-2-0.9-2-2v-8c0-1.1,0.9-2,2-2h8c1.1,0,2,0.9,2,2v8C148.1,30.6,147.2,31.5,146.1,31.5z"
		/>
	<path class="st1" d="M146.1,44.5h-8c-1.1,0-2-0.9-2-2v-8c0-1.1,0.9-2,2-2h8c1.1,0,2,0.9,2,2v8C148.1,43.6,147.2,44.5,146.1,44.5z"
		/>
	<path class="st1" d="M146.1,57.5h-8c-1.1,0-2-0.9-2-2v-8c0-1.1,0.9-2,2-2h8c1.1,0,2,0.9,2,2v8C148.1,56.6,147.2,57.5,146.1,57.5z"
		/>
	<path class="st1" d="M146.1,70.5h-8c-1.1,0-2-0.9-2-2v-8c0-1.1,0.9-2,2-2h8c1.1,0,2,0.9,2,2v8C148.1,69.6,147.2,70.5,146.1,70.5z"
		/>
	<path class="st1" d="M146.1,83.5h-8c-1.1,0-2-0.9-2-2v-8c0-1.1,0.9-2,2-2h8c1.1,0,2,0.9,2,2v8C148.1,82.6,147.2,83.5,146.1,83.5z"
		/>
	<path class="st1" d="M146.1,96.5h-8c-1.1,0-2-0.9-2-2v-8c0-1.1,0.9-2,2-2h8c1.1,0,2,0.9,2,2v8C148.1,95.6,147.2,96.5,146.1,96.5z"
		/>
	<path class="st1" d="M159.1,18.5h-8c-1.1,0-2-0.9-2-2v-8c0-1.1,0.9-2,2-2h8c1.1,0,2,0.9,2,2v8C161.1,17.6,160.2,18.5,159.1,18.5z"
		/>
	<path class="st1" d="M159.1,31.5h-8c-1.1,0-2-0.9-2-2v-8c0-1.1,0.9-2,2-2h8c1.1,0,2,0.9,2,2v8C161.1,30.6,160.2,31.5,159.1,31.5z"
		/>
	<path class="st1" d="M159.1,44.5h-8c-1.1,0-2-0.9-2-2v-8c0-1.1,0.9-2,2-2h8c1.1,0,2,0.9,2,2v8C161.1,43.6,160.2,44.5,159.1,44.5z"
		/>
	<path class="st1" d="M159.1,57.5h-8c-1.1,0-2-0.9-2-2v-8c0-1.1,0.9-2,2-2h8c1.1,0,2,0.9,2,2v8C161.1,56.6,160.2,57.5,159.1,57.5z"
		/>
	<path class="st1" d="M159.1,70.5h-8c-1.1,0-2-0.9-2-2v-8c0-1.1,0.9-2,2-2h8c1.1,0,2,0.9,2,2v8C161.1,69.6,160.2,70.5,159.1,70.5z"
		/>
	<path class="st1" d="M159.1,83.5h-8c-1.1,0-2-0.9-2-2v-8c0-1.1,0.9-2,2-2h8c1.1,0,2,0.9,2,2v8C161.1,82.6,160.2,83.5,159.1,83.5z"
		/>
	<path class="st1" d="M159.1,96.5h-8c-1.1,0-2-0.9-2-2v-8c0-1.1,0.9-2,2-2h8c1.1,0,2,0.9,2,2v8C161.1,95.6,160.2,96.5,159.1,96.5z"
		/>
	<path class="st1" d="M172.1,18.5h-8c-1.1,0-2-0.9-2-2v-8c0-1.1,0.9-2,2-2h8c1.1,0,2,0.9,2,2v8C174.1,17.6,173.2,18.5,172.1,18.5z"
		/>
	<path class="st1" d="M172.1,31.5h-8c-1.1,0-2-0.9-2-2v-8c0-1.1,0.9-2,2-2h8c1.1,0,2,0.9,2,2v8C174.1,30.6,173.2,31.5,172.1,31.5z"
		/>
	<path class="st1" d="M172.1,44.5h-8c-1.1,0-2-0.9-2-2v-8c0-1.1,0.9-2,2-2h8c1.1,0,2,0.9,2,2v8C174.1,43.6,173.2,44.5,172.1,44.5z"
		/>
	<path class="st1" d="M172.1,57.5h-8c-1.1,0-2-0.9-2-2v-8c0-1.1,0.9-2,2-2h8c1.1,0,2,0.9,2,2v8C174.1,56.6,173.2,57.5,172.1,57.5z"
		/>
	<path class="st1" d="M172.1,70.5h-8c-1.1,0-2-0.9-2-2v-8c0-1.1,0.9-2,2-2h8c1.1,0,2,0.9,2,2v8C174.1,69.6,173.2,70.5,172.1,70.5z"
		/>
	<path class="st1" d="M172.1,83.5h-8c-1.1,0-2-0.9-2-2v-8c0-1.1,0.9-2,2-2h8c1.1,0,2,0.9,2,2v8C174.1,82.6,173.2,83.5,172.1,83.5z"
		/>
	<path class="st1" d="M172.1,96.5h-8c-1.1,0-2-0.9-2-2v-8c0-1.1,0.9-2,2-2h8c1.1,0,2,0.9,2,2v8C174.1,95.6,173.2,96.5,172.1,96.5z"
		/>
	<path class="st1" d="M185.1,18.5h-8c-1.1,0-2-0.9-2-2v-8c0-1.1,0.9-2,2-2h8c1.1,0,2,0.9,2,2v8C187.1,17.6,186.2,18.5,185.1,18.5z"
		/>
	<path class="st1" d="M185.1,31.5h-8c-1.1,0-2-0.9-2-2v-8c0-1.1,0.9-2,2-2h8c1.1,0,2,0.9,2,2v8C187.1,30.6,186.2,31.5,185.1,31.5z"
		/>
	<path class="st1" d="M185.1,44.5h-8c-1.1,0-2-0.9-2-2v-8c0-1.1,0.9-2,2-2h8c1.1,0,2,0.9,2,2v8C187.1,43.6,186.2,44.5,185.1,44.5z"
		/>
	<path class="st1" d="M185.1,57.5h-8c-1.1,0-2-0.9-2-2v-8c0-1.1,0.9-2,2-2h8c1.1,0,2,0.9,2,2v8C187.1,56.6,186.2,57.5,185.1,57.5z"
		/>
	<path class="st1" d="M185.1,70.5h-8c-1.1,0-2-0.9-2-2v-8c0-1.1,0.9-2,2-2h8c1.1,0,2,0.9,2,2v8C187.1,69.6,186.2,70.5,185.1,70.5z"
		/>
	<path class="st1" d="M185.1,83.5h-8c-1.1,0-2-0.9-2-2v-8c0-1.1,0.9-2,2-2h8c1.1,0,2,0.9,2,2v8C187.1,82.6,186.2,83.5,185.1,83.5z"
		/>
	<path class="st1" d="M185.1,96.5h-8c-1.1,0-2-0.9-2-2v-8c0-1.1,0.9-2,2-2h8c1.1,0,2,0.9,2,2v8C187.1,95.6,186.2,96.5,185.1,96.5z"
		/>
	<path class="st1" d="M198.1,18.5h-8c-1.1,0-2-0.9-2-2v-8c0-1.1,0.9-2,2-2h8c1.1,0,2,0.9,2,2v8C200.1,17.6,199.2,18.5,198.1,18.5z"
		/>
	<path class="st1" d="M198.1,31.5h-8c-1.1,0-2-0.9-2-2v-8c0-1.1,0.9-2,2-2h8c1.1,0,2,0.9,2,2v8C200.1,30.6,199.2,31.5,198.1,31.5z"
		/>
	<path class="st1" d="M198.1,44.5h-8c-1.1,0-2-0.9-2-2v-8c0-1.1,0.9-2,2-2h8c1.1,0,2,0.9,2,2v8C200.1,43.6,199.2,44.5,198.1,44.5z"
		/>
	<path class="st1" d="M198.1,57.5h-8c-1.1,0-2-0.9-2-2v-8c0-1.1,0.9-2,2-2h8c1.1,0,2,0.9,2,2v8C200.1,56.6,199.2,57.5,198.1,57.5z"
		/>
	<path class="st1" d="M198.1,70.5h-8c-1.1,0-2-0.9-2-2v-8c0-1.1,0.9-2,2-2h8c1.1,0,2,0.9,2,2v8C200.1,69.6,199.2,70.5,198.1,70.5z"
		/>
	<path class="st1" d="M198.1,83.5h-8c-1.1,0-2-0.9-2-2v-8c0-1.1,0.9-2,2-2h8c1.1,0,2,0.9,2,2v8C200.1,82.6,199.2,83.5,198.1,83.5z"
		/>
	<path class="st1" d="M198.1,96.5h-8c-1.1,0-2-0.9-2-2v-8c0-1.1,0.9-2,2-2h8c1.1,0,2,0.9,2,2v8C200.1,95.6,199.2,96.5,198.1,96.5z"
		/>
	<path class="st1" d="M211.1,18.5h-8c-1.1,0-2-0.9-2-2v-8c0-1.1,0.9-2,2-2h8c1.1,0,2,0.9,2,2v8C213.1,17.6,212.2,18.5,211.1,18.5z"
		/>
	<path class="st1" d="M211.1,31.5h-8c-1.1,0-2-0.9-2-2v-8c0-1.1,0.9-2,2-2h8c1.1,0,2,0.9,2,2v8C213.1,30.6,212.2,31.5,211.1,31.5z"
		/>
	<path class="st1" d="M211.1,44.5h-8c-1.1,0-2-0.9-2-2v-8c0-1.1,0.9-2,2-2h8c1.1,0,2,0.9,2,2v8C213.1,43.6,212.2,44.5,211.1,44.5z"
		/>
	<path class="st1" d="M211.1,57.5h-8c-1.1,0-2-0.9-2-2v-8c0-1.1,0.9-2,2-2h8c1.1,0,2,0.9,2,2v8C213.1,56.6,212.2,57.5,211.1,57.5z"
		/>
</g>
</svg>
